<svg width="1920" height="500" viewBox="0 0 1920 500" fill="none" xmlns="http://www.w3.org/2000/svg">
<path d="M1920 0H0V477.208C3.76575 478.892 7.51599 481.232 11.2494 484.219C19.4559 490.784 27.5756 494 35.6248 494C43.6738 494 51.7935 490.784 60 484.219C68.4602 477.451 77.0071 474 85.6248 474C94.2423 474 102.789 477.451 111.249 484.219C119.456 490.784 127.576 494 135.625 494C143.674 494 151.793 490.784 160 484.219C168.46 477.451 177.007 474 185.625 474C194.242 474 202.789 477.451 211.249 484.219C219.456 490.784 227.576 494 235.625 494C243.674 494 251.793 490.784 260 484.219C268.46 477.451 277.007 474 285.625 474C294.242 474 302.789 477.451 311.249 484.219C319.456 490.784 327.576 494 335.625 494C343.674 494 351.793 490.784 360 484.219C368.46 477.451 377.007 474 385.625 474C394.242 474 402.789 477.451 411.249 484.219C419.456 490.784 427.576 494 435.625 494C443.674 494 451.793 490.784 460 484.219C468.46 477.451 477.007 474 485.625 474C494.242 474 502.789 477.451 511.249 484.219C519.456 490.784 527.576 494 535.625 494C543.674 494 551.793 490.784 560 484.219C568.46 477.451 577.007 474 585.625 474C594.242 474 602.789 477.451 611.249 484.219C619.456 490.784 627.576 494 635.625 494C643.674 494 651.793 490.784 660 484.219C668.46 477.451 677.007 474 685.625 474C694.242 474 702.789 477.451 711.249 484.219C719.456 490.784 727.576 494 735.625 494C743.674 494 751.793 490.784 760 484.219C768.46 477.451 777.007 474 785.625 474C794.242 474 802.789 477.451 811.249 484.219C819.456 490.784 827.576 494 835.625 494C843.674 494 851.793 490.784 860 484.219C868.46 477.451 877.007 474 885.625 474C894.242 474 902.789 477.451 911.249 484.219C919.456 490.784 927.576 494 935.625 494C943.674 494 951.793 490.784 960 484.219C968.46 477.451 977.007 474 985.625 474C994.242 474 1002.79 477.451 1011.25 484.219C1019.46 490.784 1027.58 494 1035.62 494C1043.67 494 1051.79 490.784 1060 484.219C1068.46 477.451 1077.01 474 1085.62 474C1094.24 474 1102.79 477.451 1111.25 484.219C1119.46 490.784 1127.58 494 1135.62 494C1143.67 494 1151.79 490.784 1160 484.219C1168.46 477.451 1177.01 474 1185.62 474C1194.24 474 1202.79 477.451 1211.25 484.219C1219.46 490.784 1227.58 494 1235.62 494C1243.67 494 1251.79 490.784 1260 484.219C1268.46 477.451 1277.01 474 1285.62 474C1294.24 474 1302.79 477.451 1311.25 484.219C1319.46 490.784 1327.58 494 1335.62 494C1343.67 494 1351.79 490.784 1360 484.219C1368.46 477.451 1377.01 474 1385.62 474C1394.24 474 1402.79 477.451 1411.25 484.219C1419.46 490.784 1427.58 494 1435.62 494C1443.67 494 1451.79 490.784 1460 484.219C1468.46 477.451 1477.01 474 1485.62 474C1494.24 474 1502.79 477.451 1511.25 484.219C1519.46 490.784 1527.58 494 1535.62 494C1543.67 494 1551.79 490.784 1560 484.219C1568.46 477.451 1577.01 474 1585.62 474C1594.24 474 1602.79 477.451 1611.25 484.219C1619.46 490.784 1627.58 494 1635.62 494C1643.67 494 1651.79 490.784 1660 484.219C1668.46 477.451 1677.01 474 1685.62 474C1694.24 474 1702.79 477.451 1711.25 484.219C1719.46 490.784 1727.58 494 1735.62 494C1743.67 494 1751.79 490.784 1760 484.219C1768.46 477.451 1777.01 474 1785.62 474C1794.24 474 1802.79 477.451 1811.25 484.219C1819.46 490.784 1827.58 494 1835.62 494C1843.67 494 1851.79 490.784 1860 484.219C1868.46 477.451 1877.01 474 1885.62 474C1894.24 474 1902.79 477.451 1911.25 484.219C1914.18 486.561 1917.09 488.477 1920 489.973V0Z" fill="#DA495C"/>
</svg>
